<!DOCTYPE svg PUBLIC "-//W3C//DTD SVG 20010904//EN" "http://www.w3.org/TR/2001/REC-SVG-20010904/DTD/svg10.dtd">
<svg version="1.0" xmlns="http://www.w3.org/2000/svg" width="200px" height="200px" viewBox="0 0 740 730" preserveAspectRatio="xMidYMid meet">
<g id="layer101" fill="#000101" stroke="none">
 <path d="M296 641 l-89 -89 56 -64 c56 -63 57 -63 37 -83 -20 -19 -20 -19 -78 38 -32 31 -62 57 -67 57 -16 0 -155 -143 -155 -160 0 -20 320 -340 340 -340 17 0 150 129 150 146 0 5 -22 35 -49 65 l-50 56 21 20 20 21 59 -62 58 -61 95 95 c53 52 96 101 96 110 0 20 -320 340 -340 340 -9 0 -55 -40 -104 -89z"/>
 </g>
<g id="layer102" fill="#0378fa" stroke="none">
 <path d="M345 500 c-38 -39 -46 -52 -37 -63 9 -11 8 -18 -8 -32 -16 -15 -22 -16 -35 -5 -14 12 -22 8 -53 -23 l-37 -37 82 -82 83 -82 35 34 c24 23 32 37 25 45 -7 8 -2 19 14 34 21 20 25 21 33 7 7 -13 18 -6 63 39 l54 55 -79 80 c-44 44 -82 80 -85 80 -3 0 -28 -22 -55 -50z"/>
 </g>
<g id="layer103" fill="#fdfeff" stroke="none">
 <path d="M297 402 c-43 -48 -1 -132 66 -132 42 0 67 26 67 69 0 66 -91 109 -133 63z"/>
 </g>

</svg>