<svg id="Capa_1" enable-background="new 0 0 510 510" height="450px" viewBox="0 0 510 510" width="" xmlns="http://www.w3.org/2000/svg" xmlns:xlink="http://www.w3.org/1999/xlink"><linearGradient id="lg1"><stop offset="0" stop-color="#4f4a72"/><stop offset="1" stop-color="#3b395f"/></linearGradient><linearGradient id="SVGID_1_" gradientUnits="userSpaceOnUse" x1="182.865" x2="182.865" xlink:href="#lg1" y1="130.427" y2="352.239"/><linearGradient id="lg2"><stop offset="0" stop-color="#d4f7ff"/><stop offset="1" stop-color="#a2e3e9"/></linearGradient><linearGradient id="SVGID_2_" gradientUnits="userSpaceOnUse" x1="283.435" x2="346.778" xlink:href="#lg2" y1="172.352" y2="322.283"/><linearGradient id="SVGID_3_" gradientUnits="userSpaceOnUse" x1="326.51" x2="358.988" xlink:href="#lg2" y1="295.628" y2="372.503"/><linearGradient id="SVGID_4_" gradientUnits="userSpaceOnUse" x1="326.51" x2="358.988" xlink:href="#lg2" y1="250.749" y2="327.624"/><linearGradient id="SVGID_5_" gradientUnits="userSpaceOnUse" x1="326.51" x2="358.988" xlink:href="#lg2" y1="205.87" y2="282.745"/><linearGradient id="SVGID_6_" gradientUnits="userSpaceOnUse" x1="326.51" x2="358.988" xlink:href="#lg2" y1="160.99" y2="237.866"/><linearGradient id="SVGID_7_" gradientUnits="userSpaceOnUse" x1="326.51" x2="358.988" xlink:href="#lg2" y1="116.111" y2="192.987"/><linearGradient id="SVGID_8_" gradientUnits="userSpaceOnUse" x1="170.205" x2="217.018" xlink:href="#lg2" y1="188.989" y2="299.794"/><linearGradient id="SVGID_9_" gradientUnits="userSpaceOnUse" x1="468.776" x2="515.589" xlink:href="#lg2" y1="188.989" y2="299.794"/><linearGradient id="lg3"><stop offset="0" stop-color="#3fa9f5"/><stop offset="1" stop-color="#666ad6"/></linearGradient><linearGradient id="SVGID_10_" gradientUnits="userSpaceOnUse" x1="70.155" x2="117.35" xlink:href="#lg3" y1="222.579" y2="324.393"/><linearGradient id="SVGID_11_" gradientUnits="userSpaceOnUse" x1="56.167" x2="174.42" xlink:href="#lg3" y1="262.226" y2="418.66"/><linearGradient id="SVGID_12_" gradientUnits="userSpaceOnUse" x1="101.616" x2="111.753" xlink:href="#lg1" y1="221.705" y2="284.386"/><linearGradient id="lg4"><stop offset="0" stop-color="#a34a9e" stop-opacity="0"/><stop offset="1" stop-color="#343168"/></linearGradient><linearGradient id="SVGID_13_" gradientUnits="userSpaceOnUse" x1="74.839" x2="-26.739" xlink:href="#lg4" y1="297.237" y2="231.324"/><linearGradient id="SVGID_14_" gradientUnits="userSpaceOnUse" x1="44.803" x2="44.803" xlink:href="#lg1" y1="252.056" y2="276.136"/><linearGradient id="SVGID_15_" gradientUnits="userSpaceOnUse" x1="106.535" x2="106.535" xlink:href="#lg4" y1="278.542" y2="421.761"/><linearGradient id="SVGID_16_" gradientUnits="userSpaceOnUse" x1="414.12" x2="414.12" xlink:href="#lg4" y1="306.528" y2="417.448"/><linearGradient id="SVGID_17_" gradientUnits="userSpaceOnUse" x1="306.232" x2="306.232" xlink:href="#lg4" y1="306.528" y2="417.448"/><linearGradient id="SVGID_18_" gradientUnits="userSpaceOnUse" x1="255.044" x2="255.044" xlink:href="#lg1" y1="340.237" y2="368.855"/><linearGradient id="lg5"><stop offset="0" stop-color="#a34a9e"/><stop offset=".1551" stop-color="#9b489a"/><stop offset=".4019" stop-color="#84438f"/><stop offset=".7073" stop-color="#5e3b7d"/><stop offset="1" stop-color="#343168"/></linearGradient><radialGradient id="SVGID_19_" cx="99.806" cy="344.74" gradientUnits="userSpaceOnUse" r="60.022" xlink:href="#lg5"/><linearGradient id="lg6"><stop offset="0" stop-color="#a34a9e"/><stop offset="1" stop-color="#343168"/></linearGradient><linearGradient id="SVGID_20_" gradientTransform="matrix(-1 0 0 -1 -554 -1618)" gradientUnits="userSpaceOnUse" x1="-696.302" x2="-630.037" xlink:href="#lg6" y1="-2012.445" y2="-1946.181"/><linearGradient id="SVGID_21_" gradientUnits="userSpaceOnUse" x1="74.033" x2="134.247" xlink:href="#lg2" y1="326.177" y2="386.39"/><linearGradient id="SVGID_22_" gradientTransform="matrix(-1 0 0 -1 -554 -1618)" gradientUnits="userSpaceOnUse" x1="-679.42" x2="-644.432" xlink:href="#lg2" y1="-1995.563" y2="-1960.575"/><linearGradient id="lg7"><stop offset="0" stop-color="#a2e3e9" stop-opacity="0"/><stop offset="1" stop-color="#518cd2"/></linearGradient><linearGradient id="SVGID_23_" gradientUnits="userSpaceOnUse" x1="130.645" x2="103.506" xlink:href="#lg7" y1="382.788" y2="355.649"/><linearGradient id="SVGID_24_" gradientUnits="userSpaceOnUse" x1="104.612" x2="114.381" xlink:href="#lg1" y1="356.755" y2="366.524"/><linearGradient id="SVGID_25_" gradientUnits="userSpaceOnUse" x1="104.812" x2="108.859" xlink:href="#lg1" y1="334.648" y2="338.695"/><linearGradient id="SVGID_26_" gradientUnits="userSpaceOnUse" x1="104.812" x2="108.859" xlink:href="#lg1" y1="379.264" y2="383.311"/><linearGradient id="SVGID_27_" gradientTransform="matrix(0 1 -1 0 -1086 -532)" gradientUnits="userSpaceOnUse" x1="888.956" x2="893.003" xlink:href="#lg1" y1="-1216.565" y2="-1212.518"/><linearGradient id="SVGID_28_" gradientTransform="matrix(0 1 -1 0 -1086 -532)" gradientUnits="userSpaceOnUse" x1="888.956" x2="893.003" xlink:href="#lg1" y1="-1171.949" y2="-1167.902"/><linearGradient id="SVGID_29_" gradientTransform="matrix(.707 .707 -.707 .707 -653.186 -41.177)" gradientUnits="userSpaceOnUse" x1="818.229" x2="822.276" xlink:href="#lg1" y1="-278.497" y2="-274.45"/><linearGradient id="SVGID_30_" gradientTransform="matrix(.707 .707 -.707 .707 -653.186 -41.177)" gradientUnits="userSpaceOnUse" x1="818.229" x2="822.276" xlink:href="#lg1" y1="-233.88" y2="-229.833"/><linearGradient id="SVGID_31_" gradientTransform="matrix(-.707 .707 .707 .707 99.186 -41.177)" gradientUnits="userSpaceOnUse" x1="275.825" x2="279.872" xlink:href="#lg1" y1="263.908" y2="267.955"/><linearGradient id="SVGID_32_" gradientTransform="matrix(-.707 .707 .707 .707 99.186 -41.177)" gradientUnits="userSpaceOnUse" x1="275.825" x2="279.872" xlink:href="#lg1" y1="308.525" y2="312.572"/><radialGradient id="SVGID_33_" cx="407.392" cy="344.74" gradientUnits="userSpaceOnUse" r="60.022" xlink:href="#lg5"/><linearGradient id="SVGID_34_" gradientTransform="matrix(-1 0 0 -1 -554 -1618)" gradientUnits="userSpaceOnUse" x1="-1003.888" x2="-937.624" xlink:href="#lg6" y1="-2012.445" y2="-1946.181"/><linearGradient id="SVGID_35_" gradientUnits="userSpaceOnUse" x1="381.62" x2="441.833" xlink:href="#lg2" y1="326.177" y2="386.39"/><linearGradient id="SVGID_36_" gradientTransform="matrix(-1 0 0 -1 -554 -1618)" gradientUnits="userSpaceOnUse" x1="-987.006" x2="-952.018" xlink:href="#lg2" y1="-1995.563" y2="-1960.575"/><linearGradient id="SVGID_37_" gradientUnits="userSpaceOnUse" x1="438.231" x2="411.092" xlink:href="#lg7" y1="382.788" y2="355.649"/><linearGradient id="SVGID_38_" gradientUnits="userSpaceOnUse" x1="412.198" x2="421.967" xlink:href="#lg1" y1="356.755" y2="366.524"/><linearGradient id="SVGID_39_" gradientUnits="userSpaceOnUse" x1="412.399" x2="416.446" xlink:href="#lg1" y1="334.648" y2="338.695"/><linearGradient id="SVGID_40_" gradientUnits="userSpaceOnUse" x1="412.399" x2="416.446" xlink:href="#lg1" y1="379.264" y2="383.311"/><linearGradient id="SVGID_41_" gradientTransform="matrix(0 1 -1 0 -1086 -532)" gradientUnits="userSpaceOnUse" x1="888.956" x2="893.003" xlink:href="#lg1" y1="-1524.151" y2="-1520.104"/><linearGradient id="SVGID_42_" gradientTransform="matrix(0 1 -1 0 -1086 -532)" gradientUnits="userSpaceOnUse" x1="888.956" x2="893.003" xlink:href="#lg1" y1="-1479.535" y2="-1475.488"/><linearGradient id="SVGID_43_" gradientTransform="matrix(.707 .707 -.707 .707 -653.186 -41.177)" gradientUnits="userSpaceOnUse" x1="1035.728" x2="1039.775" xlink:href="#lg1" y1="-495.995" y2="-491.948"/><linearGradient id="SVGID_44_" gradientTransform="matrix(.707 .707 -.707 .707 -653.186 -41.177)" gradientUnits="userSpaceOnUse" x1="1035.728" x2="1039.775" xlink:href="#lg1" y1="-451.378" y2="-447.331"/><linearGradient id="SVGID_45_" gradientTransform="matrix(-.707 .707 .707 .707 99.186 -41.177)" gradientUnits="userSpaceOnUse" x1="58.326" x2="62.373" xlink:href="#lg1" y1="481.407" y2="485.454"/><linearGradient id="SVGID_46_" gradientTransform="matrix(-.707 .707 .707 .707 99.186 -41.177)" gradientUnits="userSpaceOnUse" x1="58.326" x2="62.373" xlink:href="#lg1" y1="526.023" y2="530.071"/><radialGradient id="SVGID_47_" cx="299.504" cy="344.74" gradientUnits="userSpaceOnUse" r="60.022" xlink:href="#lg5"/><linearGradient id="SVGID_48_" gradientTransform="matrix(-1 0 0 -1 -554 -1618)" gradientUnits="userSpaceOnUse" x1="-896" x2="-829.735" xlink:href="#lg6" y1="-2012.445" y2="-1946.181"/><linearGradient id="SVGID_49_" gradientUnits="userSpaceOnUse" x1="273.732" x2="333.945" xlink:href="#lg2" y1="326.177" y2="386.39"/><linearGradient id="SVGID_50_" gradientTransform="matrix(-1 0 0 -1 -554 -1618)" gradientUnits="userSpaceOnUse" x1="-879.118" x2="-844.13" xlink:href="#lg2" y1="-1995.563" y2="-1960.575"/><linearGradient id="SVGID_51_" gradientUnits="userSpaceOnUse" x1="330.343" x2="303.204" xlink:href="#lg7" y1="382.788" y2="355.649"/><linearGradient id="SVGID_52_" gradientUnits="userSpaceOnUse" x1="304.31" x2="314.079" xlink:href="#lg1" y1="356.755" y2="366.524"/><linearGradient id="SVGID_53_" gradientUnits="userSpaceOnUse" x1="304.51" x2="308.557" xlink:href="#lg1" y1="334.648" y2="338.695"/><linearGradient id="SVGID_54_" gradientUnits="userSpaceOnUse" x1="304.51" x2="308.557" xlink:href="#lg1" y1="379.264" y2="383.311"/><linearGradient id="SVGID_55_" gradientTransform="matrix(0 1 -1 0 -1086 -532)" gradientUnits="userSpaceOnUse" x1="888.956" x2="893.003" xlink:href="#lg1" y1="-1416.263" y2="-1412.216"/><linearGradient id="SVGID_56_" gradientTransform="matrix(0 1 -1 0 -1086 -532)" gradientUnits="userSpaceOnUse" x1="888.956" x2="893.003" xlink:href="#lg1" y1="-1371.647" y2="-1367.6"/><linearGradient id="SVGID_57_" gradientTransform="matrix(.707 .707 -.707 .707 -653.186 -41.177)" gradientUnits="userSpaceOnUse" x1="959.439" x2="963.486" xlink:href="#lg1" y1="-419.706" y2="-415.659"/><linearGradient id="SVGID_58_" gradientTransform="matrix(.707 .707 -.707 .707 -653.186 -41.177)" gradientUnits="userSpaceOnUse" x1="959.439" x2="963.486" xlink:href="#lg1" y1="-375.089" y2="-371.042"/><linearGradient id="SVGID_59_" gradientTransform="matrix(-.707 .707 .707 .707 99.186 -41.177)" gradientUnits="userSpaceOnUse" x1="134.615" x2="138.662" xlink:href="#lg1" y1="405.118" y2="409.165"/><linearGradient id="SVGID_60_" gradientTransform="matrix(-.707 .707 .707 .707 99.186 -41.177)" gradientUnits="userSpaceOnUse" x1="134.615" x2="138.662" xlink:href="#lg1" y1="449.734" y2="453.781"/><linearGradient id="SVGID_61_" gradientUnits="userSpaceOnUse" x1="481.428" x2="497.68" y1="307.297" y2="326.86"><stop offset="0" stop-color="#ff4974"/><stop offset=".2231" stop-color="#fb3f6c"/><stop offset=".6075" stop-color="#f12357"/><stop offset="1" stop-color="#e4003d"/></linearGradient><linearGradient id="SVGID_62_" gradientUnits="userSpaceOnUse" x1="39.3" x2="43.541" y1="303.301" y2="339.209"><stop offset="0" stop-color="#ffe548"/><stop offset=".1758" stop-color="#ffde50"/><stop offset=".4446" stop-color="#ffca65"/><stop offset=".7709" stop-color="#ffaa87"/><stop offset="1" stop-color="#ff90a4"/></linearGradient><linearGradient id="SVGID_63_" gradientUnits="userSpaceOnUse" x1="24.059" x2="35.941" xlink:href="#lg2" y1="311.252" y2="384.728"/><linearGradient id="SVGID_64_" gradientUnits="userSpaceOnUse" x1="26.532" x2="26.532" xlink:href="#lg1" y1="327.454" y2="355.737"/><linearGradient id="SVGID_65_" gradientUnits="userSpaceOnUse" x1="490.696" x2="490.696" xlink:href="#lg1" y1="327.454" y2="355.737"/><linearGradient id="SVGID_66_" gradientUnits="userSpaceOnUse" x1="121.259" x2="145.678" xlink:href="#lg3" y1="145.21" y2="204.9"/><linearGradient id="SVGID_67_" gradientUnits="userSpaceOnUse" x1="151.821" x2="166.315" xlink:href="#lg1" y1="144.988" y2="154.179"/><path d="m158.449 175.66h48.831v183.018h-48.831z" fill="url(#SVGID_1_)"/><path d="m201.386 128.942h222.22v224.396h-222.22z" fill="url(#SVGID_2_)"/><path d="m201.386 308.458h280.049v44.879h-280.049z" fill="url(#SVGID_3_)"/><path d="m201.386 263.579h280.049v44.879h-280.049z" fill="url(#SVGID_4_)"/><path d="m201.386 218.7h280.049v44.879h-280.049z" fill="url(#SVGID_5_)"/><path d="m201.386 173.821h280.049v44.879h-280.049z" fill="url(#SVGID_6_)"/><path d="m201.386 128.942h280.049v44.879h-280.049z" fill="url(#SVGID_7_)"/><path d="m182.865 129.501v223.837h18.521v-223.837c0-2.964-2.403-5.367-5.367-5.367h-7.788c-2.963 0-5.366 2.403-5.366 5.367z" fill="url(#SVGID_8_)"/><path d="m481.435 129.501v223.837h18.521v-223.837c0-2.964-2.403-5.367-5.366-5.367h-7.788c-2.964 0-5.367 2.403-5.367 5.367z" fill="url(#SVGID_9_)"/><path d="m160.231 175.66h-33.911c-45.71 0-83.701 33.033-91.411 76.529-1.086 6.127-5.042 11.361-10.699 13.954-6.682 3.062-10.967 9.738-10.967 17.088v75.447h20.233 16.486 123.064v-170.223c-.001-7.066-5.729-12.795-12.795-12.795z" fill="url(#SVGID_10_)"/><path d="m28.292 263.579c-1.231 1.014-2.596 1.882-4.083 2.563-6.682 3.062-10.967 9.738-10.967 17.088v75.447h20.232 16.486 123.064v-95.099h-144.732z" fill="url(#SVGID_11_)"/><path d="m150.123 256.479h-93.746c0-36.115 29.277-65.392 65.392-65.392h10.882c9.649 0 17.472 7.822 17.472 17.471z" fill="url(#SVGID_12_)"/><path d="m52.494 253.565c-.426-1.35-1.673-2.335-3.163-2.335-6.842 0-12.388 5.546-12.388 12.388v3.864c0 3.973 1.878 7.5 4.786 9.767l81.427 81.427h34.45z" fill="url(#SVGID_13_)"/><path d="m49.331 279.871c-6.842 0-12.388-5.546-12.388-12.388v-3.864c0-6.842 5.546-12.388 12.388-12.388 1.84 0 3.332 1.492 3.332 3.332v21.976c0 1.84-1.492 3.332-3.332 3.332z" fill="url(#SVGID_14_)"/><path d="m173.351 358.675h-133.632c0-36.902 29.914-66.816 66.816-66.816 6.32 0 12.442.876 18.248 2.528 28.036 7.937 48.568 33.715 48.568 64.288z" fill="url(#SVGID_15_)"/><path d="m480.936 358.675h-133.632c0-36.902 29.914-66.816 66.816-66.816 6.32 0 12.442.876 18.248 2.528 28.036 7.937 48.568 33.715 48.568 64.288z" fill="url(#SVGID_16_)"/><path d="m373.048 358.675h-133.632c0-36.902 29.914-66.816 66.816-66.816 6.32 0 12.442.876 18.248 2.528 28.035 7.937 48.568 33.715 48.568 64.288z" fill="url(#SVGID_17_)"/><path d="m28.653 338.707h452.782v22.599h-452.782z" fill="url(#SVGID_18_)"/><circle cx="106.534" cy="358.678" fill="url(#SVGID_19_)" r="48.301"/><circle cx="106.534" cy="358.678" fill="url(#SVGID_20_)" r="31.239"/><circle cx="106.534" cy="358.678" fill="url(#SVGID_21_)" r="28.386"/><circle cx="106.534" cy="358.678" fill="url(#SVGID_22_)" r="16.495"/><path d="m132.045 371.134-18.549-18.549c-1.697-1.938-4.183-3.168-6.962-3.168-5.114 0-9.26 4.146-9.26 9.26 0 2.779 1.23 5.264 3.168 6.962l18.549 18.549c5.671-2.774 10.28-7.382 13.054-13.054z" fill="url(#SVGID_23_)"/><circle cx="106.534" cy="358.678" fill="url(#SVGID_24_)" r="9.26"/><circle cx="106.534" cy="336.37" fill="url(#SVGID_25_)" r="3.284"/><circle cx="106.534" cy="380.986" fill="url(#SVGID_26_)" r="3.284"/><circle cx="128.843" cy="358.678" fill="url(#SVGID_27_)" r="3.284"/><circle cx="84.226" cy="358.678" fill="url(#SVGID_28_)" r="3.284"/><circle cx="122.309" cy="342.904" fill="url(#SVGID_29_)" r="3.284"/><circle cx="90.76" cy="374.452" fill="url(#SVGID_30_)" r="3.284"/><circle cx="90.76" cy="342.904" fill="url(#SVGID_31_)" r="3.284"/><circle cx="122.309" cy="374.452" fill="url(#SVGID_32_)" r="3.284"/><circle cx="414.121" cy="358.678" fill="url(#SVGID_33_)" r="48.301"/><circle cx="414.121" cy="358.678" fill="url(#SVGID_34_)" r="31.239"/><circle cx="414.121" cy="358.678" fill="url(#SVGID_35_)" r="28.386"/><circle cx="414.121" cy="358.678" fill="url(#SVGID_36_)" r="16.495"/><path d="m439.631 371.134-18.549-18.549c-1.697-1.938-4.183-3.168-6.962-3.168-5.114 0-9.26 4.146-9.26 9.26 0 2.779 1.23 5.264 3.168 6.962l18.549 18.549c5.671-2.774 10.28-7.382 13.054-13.054z" fill="url(#SVGID_37_)"/><circle cx="414.121" cy="358.678" fill="url(#SVGID_38_)" r="9.26"/><circle cx="414.121" cy="336.37" fill="url(#SVGID_39_)" r="3.284"/><circle cx="414.121" cy="380.986" fill="url(#SVGID_40_)" r="3.284"/><circle cx="436.429" cy="358.678" fill="url(#SVGID_41_)" r="3.284"/><circle cx="391.813" cy="358.678" fill="url(#SVGID_42_)" r="3.284"/><circle cx="429.895" cy="342.904" fill="url(#SVGID_43_)" r="3.284"/><circle cx="398.347" cy="374.452" fill="url(#SVGID_44_)" r="3.284"/><circle cx="398.347" cy="342.904" fill="url(#SVGID_45_)" r="3.284"/><circle cx="429.895" cy="374.452" fill="url(#SVGID_46_)" r="3.284"/><circle cx="306.233" cy="358.678" fill="url(#SVGID_47_)" r="48.301"/><circle cx="306.233" cy="358.678" fill="url(#SVGID_48_)" r="31.239"/><circle cx="306.233" cy="358.678" fill="url(#SVGID_49_)" r="28.386"/><circle cx="306.233" cy="358.678" fill="url(#SVGID_50_)" r="16.495"/><path d="m331.743 371.134-18.549-18.549c-1.697-1.938-4.183-3.168-6.962-3.168-5.114 0-9.26 4.146-9.26 9.26 0 2.779 1.23 5.264 3.168 6.962l18.549 18.549c5.671-2.774 10.28-7.382 13.054-13.054z" fill="url(#SVGID_51_)"/><circle cx="306.233" cy="358.678" fill="url(#SVGID_52_)" r="9.26"/><circle cx="306.233" cy="336.37" fill="url(#SVGID_53_)" r="3.284"/><circle cx="306.233" cy="380.986" fill="url(#SVGID_54_)" r="3.284"/><circle cx="328.541" cy="358.678" fill="url(#SVGID_55_)" r="3.284"/><circle cx="283.924" cy="358.678" fill="url(#SVGID_56_)" r="3.284"/><circle cx="322.007" cy="342.904" fill="url(#SVGID_57_)" r="3.284"/><circle cx="290.458" cy="374.452" fill="url(#SVGID_58_)" r="3.284"/><circle cx="290.458" cy="342.904" fill="url(#SVGID_59_)" r="3.284"/><circle cx="322.007" cy="374.452" fill="url(#SVGID_60_)" r="3.284"/><path d="m499.957 305.556h-7.783c-5.135 0-9.297 4.163-9.297 9.297v18.232h17.08z" fill="url(#SVGID_61_)"/><path d="m40.589 305.556h-7.059v27.529h16.356v-18.232c0-5.134-4.162-9.297-9.297-9.297z" fill="url(#SVGID_62_)"/><path d="m13.243 283.231v75.447h20.233 6.244v-63.664c0-8.363-6.779-15.142-15.142-15.142h-11.02c-.2 1.097-.315 2.218-.315 3.359z" fill="url(#SVGID_63_)"/><path d="m40.76 366.726h-28.456c-6.795 0-12.304-5.509-12.304-12.304v-14.602c0-6.796 5.509-12.304 12.304-12.304h28.456c6.796 0 12.304 5.509 12.304 12.304v14.602c0 6.795-5.509 12.304-12.304 12.304z" fill="url(#SVGID_64_)"/><path d="m497.696 366.726h-14c-6.796 0-12.304-5.509-12.304-12.304v-14.602c0-6.796 5.509-12.304 12.304-12.304h14c6.796 0 12.304 5.509 12.304 12.304v14.602c0 6.795-5.509 12.304-12.304 12.304z" fill="url(#SVGID_65_)"/><path d="m166.127 175.66h-83.934c-3.81 0-6.898-3.089-6.898-6.898v-.771c0-21.566 17.483-39.048 39.048-39.048h51.783c3.81 0 6.898 3.089 6.898 6.898v32.921c.001 3.81-3.087 6.898-6.897 6.898z" fill="url(#SVGID_66_)"/><path d="m194.418 103.021h-18.095c-9.871 0-17.873 8.002-17.873 17.873v94.108c0 3.757 3.045 6.802 6.802 6.802h.972c3.757 0 6.802-3.046 6.802-6.802v-91.097c0-3.484 2.825-6.309 6.309-6.309h6.892c3.616 0 6.922-2.041 8.542-5.274l2.416-4.821c1.031-2.056-.465-4.48-2.767-4.48z" fill="url(#SVGID_67_)"/></svg>