<!DOCTYPE svg PUBLIC "-//W3C//DTD SVG 20010904//EN" "http://www.w3.org/TR/2001/REC-SVG-20010904/DTD/svg10.dtd">
<svg version="1.0" xmlns="http://www.w3.org/2000/svg" width="74px" height="73px" viewBox="0 0 740 730" preserveAspectRatio="xMidYMid meet">
<g id="layer101" fill="#f5f5f5" stroke="none">
 <path d="M296 641 l-89 -89 56 -64 c56 -63 57 -63 37 -83 -20 -19 -20 -19 -78 38 -32 31 -62 57 -67 57 -16 0 -155 -143 -155 -160 0 -20 320 -340 340 -340 17 0 150 129 150 146 0 5 -22 35 -49 65 l-50 56 21 20 20 21 59 -62 58 -61 95 95 c53 52 96 101 96 110 0 20 -320 340 -340 340 -9 0 -55 -40 -104 -89z"/>
 </g>

</svg>